<svg xmlns="http://www.w3.org/2000/svg" viewBox="0 0 1000 340" width="1000" height="340" role="img" aria-label="Stack: Figma, Design Systems, Prototipagem, Acessibilidade, Design Gráfico, HTML5, CSS3, SCSS, JavaScript, TypeScript, Liquid, GraphQL, React, Next.js, Remix, React Native, Tailwind, NativeWind, Bootstrap, Shopify, Hydrogen, Weaverse, Headless, Metafields, GSAP, Three.js, n8n, IA, Git e Vercel">
  <defs>
    <linearGradient id="kFundo" x1="0" y1="0" x2="0.8" y2="1">
      <stop offset="0%" stop-color="#fffdff"/><stop offset="55%" stop-color="#faf5ff"/><stop offset="100%" stop-color="#f3e8ff"/>
    </linearGradient>
    <radialGradient id="kB1" cx="50%" cy="50%"><stop offset="0%" stop-color="#b06cf0" stop-opacity=".16"/><stop offset="100%" stop-color="#b06cf0" stop-opacity="0"/></radialGradient>
    <radialGradient id="kB2" cx="50%" cy="50%"><stop offset="0%" stop-color="#5b8def" stop-opacity=".14"/><stop offset="100%" stop-color="#5b8def" stop-opacity="0"/></radialGradient>
    <clipPath id="kCard"><rect width="1000" height="340" rx="28"/></clipPath>
    <style>
      .linha{animation:entra .9s cubic-bezier(.2,.7,.3,1) both}
      .r2{animation-delay:.1s}.r3{animation-delay:.2s}.r4{animation-delay:.3s}.r5{animation-delay:.4s}
      @keyframes entra{from{opacity:0;transform:translateX(-16px)}to{opacity:1;transform:translateX(0)}}
      .pisca{animation:pisca 7s ease-in-out infinite}
      .g2{animation-delay:.9s}.g3{animation-delay:1.8s}.g4{animation-delay:2.7s}.g5{animation-delay:3.6s}
      @keyframes pisca{0%,100%{opacity:.45}50%{opacity:1}}

      @media (prefers-reduced-motion: reduce){*{animation:none !important}}
    </style>
  </defs>

  <g clip-path="url(#kCard)">
    <rect width="1000" height="340" fill="url(#kFundo)"/>
    <ellipse cx="920" cy="30" rx="300" ry="180" fill="url(#kB1)"/>
    <ellipse cx="50" cy="330" rx="300" ry="170" fill="url(#kB2)"/>

    <g font-family="Jost, Century Gothic, Futura, Segoe UI, Arial, sans-serif">

      <g class="linha">
        <circle class="pisca" cx="46" cy="61" r="4.5" fill="#7e22ce"/>
        <text x="60" y="65" font-size="10.5" letter-spacing="2.4" fill="#7e22ce">DESIGN</text>
        <g font-size="12" letter-spacing=".6" fill="#111827" text-anchor="middle">
          <g><rect x="200" y="46" width="57"  height="30" rx="15" fill="#7e22ce" fill-opacity=".1" stroke="#7e22ce" stroke-opacity=".35"/><text x="228.5" y="66">Figma</text></g>
          <g><rect x="267" y="46" width="120" height="30" rx="15" fill="#7e22ce" fill-opacity=".1" stroke="#7e22ce" stroke-opacity=".35"/><text x="327" y="66">Design Systems</text></g>
          <g><rect x="397" y="46" width="106" height="30" rx="15" fill="#7e22ce" fill-opacity=".1" stroke="#7e22ce" stroke-opacity=".35"/><text x="450" y="66">Prototipagem</text></g>
          <g><rect x="513" y="46" width="120" height="30" rx="15" fill="#7e22ce" fill-opacity=".1" stroke="#7e22ce" stroke-opacity=".35"/><text x="573" y="66">Acessibilidade</text></g>
          <g><rect x="643" y="46" width="120" height="30" rx="15" fill="#7e22ce" fill-opacity=".1" stroke="#7e22ce" stroke-opacity=".35"/><text x="703" y="66">Design Gráfico</text></g>
        </g>
      </g>

      <g class="linha r2">
        <circle class="pisca g2" cx="46" cy="117" r="4.5" fill="#2563eb"/>
        <text x="60" y="121" font-size="10.5" letter-spacing="2.4" fill="#2563eb">LINGUAGENS</text>
        <g font-size="12" letter-spacing=".6" fill="#111827" text-anchor="middle">
          <g><rect x="200" y="102" width="57" height="30" rx="15" fill="#2563eb" fill-opacity=".1" stroke="#2563eb" stroke-opacity=".35"/><text x="228.5" y="122">HTML5</text></g>
          <g><rect x="267" y="102" width="50" height="30" rx="15" fill="#2563eb" fill-opacity=".1" stroke="#2563eb" stroke-opacity=".35"/><text x="292" y="122">CSS3</text></g>
          <g><rect x="327" y="102" width="50" height="30" rx="15" fill="#2563eb" fill-opacity=".1" stroke="#2563eb" stroke-opacity=".35"/><text x="352" y="122">SCSS</text></g>
          <g><rect x="387" y="102" width="92" height="30" rx="15" fill="#2563eb" fill-opacity=".1" stroke="#2563eb" stroke-opacity=".35"/><text x="433" y="122">JavaScript</text></g>
          <g><rect x="489" y="102" width="92" height="30" rx="15" fill="#2563eb" fill-opacity=".1" stroke="#2563eb" stroke-opacity=".35"/><text x="535" y="122">TypeScript</text></g>
          <g><rect x="591" y="102" width="64" height="30" rx="15" fill="#2563eb" fill-opacity=".1" stroke="#2563eb" stroke-opacity=".35"/><text x="623" y="122">Liquid</text></g>
          <g><rect x="665" y="102" width="75" height="30" rx="15" fill="#2563eb" fill-opacity=".1" stroke="#2563eb" stroke-opacity=".35"/><text x="702.5" y="122">GraphQL</text></g>
        </g>
      </g>

      <g class="linha r3">
        <circle class="pisca g3" cx="46" cy="173" r="4.5" fill="#db2777"/>
        <text x="60" y="177" font-size="10.5" letter-spacing="2.4" fill="#db2777">FRAMEWORKS</text>
        <g font-size="12" letter-spacing=".6" fill="#111827" text-anchor="middle">
          <g><rect x="200" y="158" width="57"  height="30" rx="15" fill="#db2777" fill-opacity=".1" stroke="#db2777" stroke-opacity=".35"/><text x="228.5" y="178">React</text></g>
          <g><rect x="267" y="158" width="71"  height="30" rx="15" fill="#db2777" fill-opacity=".1" stroke="#db2777" stroke-opacity=".35"/><text x="302.5" y="178">Next.js</text></g>
          <g><rect x="348" y="158" width="57"  height="30" rx="15" fill="#db2777" fill-opacity=".1" stroke="#db2777" stroke-opacity=".35"/><text x="376.5" y="178">Remix</text></g>
          <g><rect x="415" y="158" width="106" height="30" rx="15" fill="#db2777" fill-opacity=".1" stroke="#db2777" stroke-opacity=".35"/><text x="468" y="178">React Native</text></g>
          <g><rect x="531" y="158" width="78"  height="30" rx="15" fill="#db2777" fill-opacity=".1" stroke="#db2777" stroke-opacity=".35"/><text x="570" y="178">Tailwind</text></g>
          <g><rect x="619" y="158" width="92"  height="30" rx="15" fill="#db2777" fill-opacity=".1" stroke="#db2777" stroke-opacity=".35"/><text x="665" y="178">NativeWind</text></g>
          <g><rect x="721" y="158" width="85"  height="30" rx="15" fill="#db2777" fill-opacity=".1" stroke="#db2777" stroke-opacity=".35"/><text x="763.5" y="178">Bootstrap</text></g>
        </g>
      </g>

      <g class="linha r4">
        <circle class="pisca g4" cx="46" cy="229" r="4.5" fill="#16a34a"/>
        <text x="60" y="233" font-size="10.5" letter-spacing="2.4" fill="#16a34a">E-COMMERCE</text>
        <g font-size="12" letter-spacing=".6" fill="#111827" text-anchor="middle">
          <g><rect x="200" y="214" width="71" height="30" rx="15" fill="#16a34a" fill-opacity=".1" stroke="#16a34a" stroke-opacity=".35"/><text x="235.5" y="234">Shopify</text></g>
          <g><rect x="281" y="214" width="78" height="30" rx="15" fill="#16a34a" fill-opacity=".1" stroke="#16a34a" stroke-opacity=".35"/><text x="320" y="234">Hydrogen</text></g>
          <g><rect x="369" y="214" width="78" height="30" rx="15" fill="#16a34a" fill-opacity=".1" stroke="#16a34a" stroke-opacity=".35"/><text x="408" y="234">Weaverse</text></g>
          <g><rect x="457" y="214" width="78" height="30" rx="15" fill="#16a34a" fill-opacity=".1" stroke="#16a34a" stroke-opacity=".35"/><text x="496" y="234">Headless</text></g>
          <g><rect x="545" y="214" width="92" height="30" rx="15" fill="#16a34a" fill-opacity=".1" stroke="#16a34a" stroke-opacity=".35"/><text x="591" y="234">Metafields</text></g>
        </g>
      </g>

      <g class="linha r5">
        <circle class="pisca g5" cx="46" cy="285" r="4.5" fill="#ea580c"/>
        <text x="60" y="289" font-size="10.5" letter-spacing="2.4" fill="#ea580c">MOVIMENTO &amp; IA</text>
        <g font-size="12" letter-spacing=".6" fill="#111827" text-anchor="middle">
          <g><rect x="200" y="270" width="57" height="30" rx="15" fill="#ea580c" fill-opacity=".1" stroke="#ea580c" stroke-opacity=".35"/><text x="228.5" y="290">GSAP</text></g>
          <g><rect x="267" y="270" width="78" height="30" rx="15" fill="#ea580c" fill-opacity=".1" stroke="#ea580c" stroke-opacity=".35"/><text x="306" y="290">Three.js</text></g>
          <g><rect x="355" y="270" width="50" height="30" rx="15" fill="#ea580c" fill-opacity=".1" stroke="#ea580c" stroke-opacity=".35"/><text x="380" y="290">n8n</text></g>
          <g><rect x="415" y="270" width="44" height="30" rx="15" fill="#ea580c" fill-opacity=".1" stroke="#ea580c" stroke-opacity=".35"/><text x="437" y="290">IA</text></g>
          <g><rect x="469" y="270" width="50" height="30" rx="15" fill="#ea580c" fill-opacity=".1" stroke="#ea580c" stroke-opacity=".35"/><text x="494" y="290">Git</text></g>
          <g><rect x="529" y="270" width="64" height="30" rx="15" fill="#ea580c" fill-opacity=".1" stroke="#ea580c" stroke-opacity=".35"/><text x="561" y="290">Vercel</text></g>
        </g>
      </g>
    </g>


    <rect x="1" y="1" width="998" height="338" rx="28" fill="none" stroke="#9333ea" stroke-opacity=".2" stroke-width="2"/>
  </g>
</svg>
